<mxfile host="app.diagrams.net" agent="Mozilla/5.0 (Windows NT 10.0; Win64; x64) AppleWebKit/537.36 (KHTML, like Gecko) Chrome/138.0.0.0 Safari/537.36" version="28.0.7">
  <diagram name="CDAC Feedback ERD" id="cGC9WTk6SACxYBViMmu_">
    <mxGraphModel dx="1830" dy="1853" grid="1" gridSize="10" guides="1" tooltips="1" connect="1" arrows="1" fold="1" page="1" pageScale="1" pageWidth="850" pageHeight="1100" math="0" shadow="0">
      <root>
        <mxCell id="0" />
        <mxCell id="1" parent="0" />
        <mxCell id="p08QZk6RSZ-r1u3Rrn62-37" value="Students" style="shape=swimlane;fontSize=15;" parent="1" vertex="1">
          <mxGeometry x="90" y="170" width="160" height="168" as="geometry" />
        </mxCell>
        <mxCell id="p08QZk6RSZ-r1u3Rrn62-38" value="&lt;font style=&quot;font-size: 15px;&quot;&gt;&lt;br style=&quot;padding: 0px; margin: 0px;&quot;&gt;-Student_id (PK)&lt;br style=&quot;padding: 0px; margin: 0px;&quot;&gt;- name&lt;br style=&quot;padding: 0px; margin: 0px;&quot;&gt;- email&lt;br style=&quot;padding: 0px; margin: 0px;&quot;&gt;- password&lt;/font&gt;&lt;div&gt;&lt;font style=&quot;font-size: 15px;&quot;&gt;-Course_id(FK)&lt;/font&gt;&lt;/div&gt;&lt;div&gt;&lt;font style=&quot;font-size: 15px;&quot;&gt;-batch_id(FK)&lt;/font&gt;&lt;/div&gt;&lt;div&gt;&lt;br&gt;&lt;/div&gt;" style="text;html=1;align=center;verticalAlign=middle;resizable=0;points=[];autosize=1;strokeColor=none;fillColor=none;" parent="p08QZk6RSZ-r1u3Rrn62-37" vertex="1">
          <mxGeometry x="15" y="18" width="130" height="150" as="geometry" />
        </mxCell>
        <mxCell id="p08QZk6RSZ-r1u3Rrn62-39" value="Faculty_tb" style="shape=swimlane;fontSize=15;" parent="1" vertex="1">
          <mxGeometry x="515" y="-20" width="160" height="160" as="geometry" />
        </mxCell>
        <mxCell id="p08QZk6RSZ-r1u3Rrn62-40" value="&lt;font style=&quot;font-size: 15px;&quot;&gt;&lt;br style=&quot;padding: 0px; margin: 0px;&quot;&gt;- faculty_id (PK)&lt;br style=&quot;padding: 0px; margin: 0px;&quot;&gt;- name&lt;br style=&quot;padding: 0px; margin: 0px;&quot;&gt;- email&lt;/font&gt;&lt;div&gt;&lt;font style=&quot;font-size: 15px;&quot;&gt;-password&lt;/font&gt;&lt;/div&gt;&lt;div&gt;&lt;font style=&quot;font-size: 15px;&quot;&gt;-role&lt;/font&gt;&lt;/div&gt;&lt;div&gt;&lt;font style=&quot;font-size: 15px;&quot;&gt;-subject_id(FK)&lt;/font&gt;&lt;/div&gt;" style="text;html=1;align=center;verticalAlign=middle;resizable=0;points=[];autosize=1;strokeColor=none;fillColor=none;" parent="p08QZk6RSZ-r1u3Rrn62-39" vertex="1">
          <mxGeometry x="15" y="20" width="130" height="140" as="geometry" />
        </mxCell>
        <mxCell id="p08QZk6RSZ-r1u3Rrn62-41" value="Subjects" style="shape=swimlane;fontSize=15;" parent="1" vertex="1">
          <mxGeometry x="980" y="160" width="200" height="160" as="geometry" />
        </mxCell>
        <mxCell id="p08QZk6RSZ-r1u3Rrn62-42" value="&lt;font style=&quot;font-size: 15px;&quot;&gt;&lt;br style=&quot;padding: 0px; margin: 0px;&quot;&gt;- subject_id (PK)&lt;br style=&quot;padding: 0px; margin: 0px;&quot;&gt;- subject_name&lt;br&gt;&lt;/font&gt;&lt;div&gt;&lt;br&gt;&lt;/div&gt;" style="text;html=1;align=center;verticalAlign=middle;resizable=0;points=[];autosize=1;strokeColor=none;fillColor=none;" parent="p08QZk6RSZ-r1u3Rrn62-41" vertex="1">
          <mxGeometry x="35" y="63" width="130" height="80" as="geometry" />
        </mxCell>
        <mxCell id="p08QZk6RSZ-r1u3Rrn62-43" value="FeedbackQuestions_tb" style="shape=swimlane;fontSize=15;" parent="1" vertex="1">
          <mxGeometry x="700" y="480" width="225" height="160" as="geometry" />
        </mxCell>
        <mxCell id="p08QZk6RSZ-r1u3Rrn62-44" value="&lt;font style=&quot;font-size: 15px;&quot;&gt;&lt;br style=&quot;padding: 0px; margin: 0px;&quot;&gt;- question_id (PK)&lt;br style=&quot;padding: 0px; margin: 0px;&quot;&gt;- question_text&lt;br style=&quot;padding: 0px; margin: 0px;&quot;&gt;- feedbackmodule_type_id(FK)&lt;/font&gt;&lt;div&gt;&lt;font style=&quot;font-size: 15px;&quot;&gt;-schedule_id(FK)&lt;/font&gt;&lt;/div&gt;" style="text;html=1;align=center;verticalAlign=middle;resizable=0;points=[];autosize=1;strokeColor=none;fillColor=none;" parent="p08QZk6RSZ-r1u3Rrn62-43" vertex="1">
          <mxGeometry x="-5" y="33" width="230" height="100" as="geometry" />
        </mxCell>
        <mxCell id="p08QZk6RSZ-r1u3Rrn62-45" value="FilledFeedbacks_tb" style="shape=swimlane;fontSize=15;" parent="1" vertex="1">
          <mxGeometry x="90" y="480" width="240" height="210" as="geometry" />
        </mxCell>
        <mxCell id="qS7wYGYCsNWKa4y34_iu-3" value="&lt;font style=&quot;font-size: 15px;&quot;&gt;-filledFeedback_id(pk)&lt;/font&gt;&lt;div&gt;&lt;font style=&quot;font-size: 15px;&quot;&gt;-student_id(FK)&lt;/font&gt;&lt;/div&gt;&lt;div&gt;&lt;font style=&quot;font-size: 15px;&quot;&gt;-fd_question_id(FK)&lt;/font&gt;&lt;/div&gt;&lt;div&gt;&lt;font style=&quot;font-size: 15px;&quot;&gt;-schedule_id(FK)&lt;/font&gt;&lt;/div&gt;&lt;div&gt;&lt;font style=&quot;font-size: 15px;&quot;&gt;-faculty_id(FK)&lt;/font&gt;&lt;/div&gt;&lt;div&gt;&lt;font style=&quot;font-size: 15px;&quot;&gt;-feedback_type_id(FK)&lt;/font&gt;&lt;/div&gt;&lt;div&gt;&lt;font style=&quot;font-size: 15px;&quot;&gt;-feedback_module_id(FK)&lt;/font&gt;&lt;/div&gt;&lt;div&gt;&lt;font style=&quot;font-size: 15px;&quot;&gt;-comments&lt;/font&gt;&lt;/div&gt;&lt;div&gt;&lt;font style=&quot;font-size: 15px;&quot;&gt;-rating&lt;/font&gt;&lt;/div&gt;" style="text;html=1;align=center;verticalAlign=middle;whiteSpace=wrap;rounded=0;" parent="p08QZk6RSZ-r1u3Rrn62-45" vertex="1">
          <mxGeometry x="5" y="60" width="215" height="130" as="geometry" />
        </mxCell>
        <mxCell id="p08QZk6RSZ-r1u3Rrn62-47" style="endArrow=block;" parent="1" edge="1">
          <mxGeometry relative="1" as="geometry">
            <mxPoint x="675" y="73.00113402061857" as="sourcePoint" />
            <mxPoint x="980" y="181.16608247422687" as="targetPoint" />
          </mxGeometry>
        </mxCell>
        <mxCell id="p08QZk6RSZ-r1u3Rrn62-48" style="endArrow=block;" parent="1" source="p08QZk6RSZ-r1u3Rrn62-37" edge="1">
          <mxGeometry relative="1" as="geometry">
            <Array as="points">
              <mxPoint x="170" y="400" />
            </Array>
            <mxPoint x="170" y="478" as="targetPoint" />
          </mxGeometry>
        </mxCell>
        <mxCell id="p08QZk6RSZ-r1u3Rrn62-49" value="Course" style="shape=swimlane;fontSize=15;" parent="1" vertex="1">
          <mxGeometry x="290" y="170" width="160" height="160" as="geometry" />
        </mxCell>
        <mxCell id="p08QZk6RSZ-r1u3Rrn62-50" value="&lt;font style=&quot;font-size: 15px;&quot;&gt;&lt;br style=&quot;padding: 0px; margin: 0px;&quot;&gt;- course_id (PK)&lt;/font&gt;&lt;div&gt;&lt;div&gt;&lt;font style=&quot;font-size: 15px;&quot;&gt;- course_name&lt;/font&gt;&lt;/div&gt;&lt;/div&gt;" style="text;html=1;align=center;verticalAlign=middle;resizable=0;points=[];autosize=1;strokeColor=none;fillColor=none;" parent="p08QZk6RSZ-r1u3Rrn62-49" vertex="1">
          <mxGeometry x="15" y="58" width="130" height="70" as="geometry" />
        </mxCell>
        <mxCell id="p08QZk6RSZ-r1u3Rrn62-51" style="endArrow=block;" parent="1" edge="1">
          <mxGeometry relative="1" as="geometry">
            <mxPoint x="290" y="280" as="sourcePoint" />
            <mxPoint x="250" y="280" as="targetPoint" />
          </mxGeometry>
        </mxCell>
        <mxCell id="p08QZk6RSZ-r1u3Rrn62-52" style="endArrow=block;exitX=0;exitY=0.75;exitDx=0;exitDy=0;" parent="1" edge="1">
          <mxGeometry relative="1" as="geometry">
            <mxPoint x="515" y="113" as="sourcePoint" />
            <mxPoint x="385" y="170" as="targetPoint" />
          </mxGeometry>
        </mxCell>
        <mxCell id="p08QZk6RSZ-r1u3Rrn62-53" value="" style="ellipse;whiteSpace=wrap;html=1;" parent="1" vertex="1">
          <mxGeometry x="130" y="-190" width="120" height="80" as="geometry" />
        </mxCell>
        <mxCell id="p08QZk6RSZ-r1u3Rrn62-54" value="&lt;font style=&quot;font-size: 15px;&quot;&gt;Login&lt;/font&gt;" style="text;html=1;align=center;verticalAlign=middle;whiteSpace=wrap;rounded=0;" parent="1" vertex="1">
          <mxGeometry x="160" y="-165" width="60" height="30" as="geometry" />
        </mxCell>
        <mxCell id="p08QZk6RSZ-r1u3Rrn62-56" style="endArrow=block;entryX=0;entryY=0.5;entryDx=0;entryDy=0;exitX=1;exitY=0.5;exitDx=0;exitDy=0;" parent="1" source="p08QZk6RSZ-r1u3Rrn62-53" edge="1">
          <mxGeometry relative="1" as="geometry">
            <mxPoint x="260" y="-150" as="sourcePoint" />
            <mxPoint x="515" y="-149.89" as="targetPoint" />
          </mxGeometry>
        </mxCell>
        <mxCell id="p08QZk6RSZ-r1u3Rrn62-57" style="endArrow=block;" parent="1" edge="1">
          <mxGeometry relative="1" as="geometry">
            <mxPoint x="450" y="240" as="sourcePoint" />
            <mxPoint x="515" y="240" as="targetPoint" />
          </mxGeometry>
        </mxCell>
        <mxCell id="p08QZk6RSZ-r1u3Rrn62-58" value="Batch" style="shape=swimlane;fontSize=15;" parent="1" vertex="1">
          <mxGeometry x="515" y="170" width="200" height="160" as="geometry" />
        </mxCell>
        <mxCell id="p08QZk6RSZ-r1u3Rrn62-59" value="&lt;font style=&quot;font-size: 15px;&quot;&gt;&lt;br style=&quot;padding: 0px; margin: 0px;&quot;&gt;- batch_id (PK)&lt;/font&gt;&lt;div&gt;&lt;font style=&quot;font-size: 15px;&quot;&gt;-batch_name&lt;br style=&quot;padding: 0px; margin: 0px;&quot;&gt;- course_id (FK)&lt;/font&gt;&lt;/div&gt;" style="text;html=1;align=center;verticalAlign=middle;resizable=0;points=[];autosize=1;strokeColor=none;fillColor=none;" parent="p08QZk6RSZ-r1u3Rrn62-58" vertex="1">
          <mxGeometry x="45" y="38" width="130" height="90" as="geometry" />
        </mxCell>
        <mxCell id="p08QZk6RSZ-r1u3Rrn62-60" style="endArrow=block;" parent="1" edge="1">
          <mxGeometry relative="1" as="geometry">
            <mxPoint x="220" y="330" as="sourcePoint" />
            <mxPoint x="1010" y="410" as="targetPoint" />
            <Array as="points">
              <mxPoint x="220" y="410" />
            </Array>
          </mxGeometry>
        </mxCell>
        <mxCell id="p08QZk6RSZ-r1u3Rrn62-61" value="" style="endArrow=classic;html=1;rounded=0;" parent="1" edge="1">
          <mxGeometry width="50" height="50" relative="1" as="geometry">
            <mxPoint x="1010" y="410" as="sourcePoint" />
            <mxPoint x="1010" y="320" as="targetPoint" />
          </mxGeometry>
        </mxCell>
        <mxCell id="p08QZk6RSZ-r1u3Rrn62-62" value="Role" style="shape=swimlane;fontSize=15;" parent="1" vertex="1">
          <mxGeometry x="760" y="208" width="160" height="127" as="geometry" />
        </mxCell>
        <mxCell id="p08QZk6RSZ-r1u3Rrn62-63" value="&lt;font style=&quot;font-size: 15px;&quot;&gt;-role_id(PK)&lt;/font&gt;&lt;div&gt;&lt;font style=&quot;font-size: 15px;&quot;&gt;-name&lt;br&gt;&lt;/font&gt;&lt;div&gt;&lt;font style=&quot;font-size: 15px;&quot;&gt;-faculty_id(FK)&lt;/font&gt;&lt;/div&gt;&lt;/div&gt;" style="text;html=1;align=center;verticalAlign=middle;resizable=0;points=[];autosize=1;strokeColor=none;fillColor=none;" parent="p08QZk6RSZ-r1u3Rrn62-62" vertex="1">
          <mxGeometry x="20" y="47" width="120" height="70" as="geometry" />
        </mxCell>
        <mxCell id="p08QZk6RSZ-r1u3Rrn62-64" value="" style="endArrow=classic;html=1;rounded=0;exitX=1;exitY=1;exitDx=0;exitDy=0;" parent="1" edge="1">
          <mxGeometry width="50" height="50" relative="1" as="geometry">
            <mxPoint x="675" y="110" as="sourcePoint" />
            <mxPoint x="780" y="200" as="targetPoint" />
          </mxGeometry>
        </mxCell>
        <mxCell id="p08QZk6RSZ-r1u3Rrn62-65" value="feedback_schedule_tb" style="shape=swimlane;fontSize=15;" parent="1" vertex="1">
          <mxGeometry x="413" y="480" width="200" height="220" as="geometry" />
        </mxCell>
        <mxCell id="p08QZk6RSZ-r1u3Rrn62-66" value="&lt;font style=&quot;font-size: 15px;&quot;&gt;&lt;br style=&quot;padding: 0px; margin: 0px;&quot;&gt;- schedule_id (PK)&lt;br style=&quot;padding: 0px; margin: 0px;&quot;&gt;- course_id(FK)&lt;br style=&quot;padding: 0px; margin: 0px;&quot;&gt;- subject_id (FK)&lt;/font&gt;&lt;div&gt;&lt;span style=&quot;font-size: 15px;&quot;&gt;-faculty_id(FK)&lt;/span&gt;&lt;/div&gt;&lt;div&gt;&lt;span style=&quot;font-size: 15px;&quot;&gt;-batch_id(FK)&lt;/span&gt;&lt;/div&gt;&lt;div&gt;&lt;span style=&quot;font-size: 15px;&quot;&gt;feedback_type_id(FK)&lt;/span&gt;&lt;span style=&quot;font-size: 15px;&quot;&gt;&lt;br&gt;&lt;/span&gt;&lt;div&gt;&lt;font style=&quot;font-size: 15px;&quot;&gt;-schedule_date&lt;/font&gt;&lt;/div&gt;&lt;div&gt;&lt;br&gt;&lt;/div&gt;&lt;div&gt;&lt;font style=&quot;font-size: 15px;&quot;&gt;&lt;br&gt;&lt;/font&gt;&lt;/div&gt;&lt;/div&gt;" style="text;html=1;align=center;verticalAlign=middle;resizable=0;points=[];autosize=1;strokeColor=none;fillColor=none;" parent="p08QZk6RSZ-r1u3Rrn62-65" vertex="1">
          <mxGeometry x="15" y="30" width="170" height="190" as="geometry" />
        </mxCell>
        <mxCell id="p08QZk6RSZ-r1u3Rrn62-67" value="" style="endArrow=classic;html=1;rounded=0;" parent="1" edge="1">
          <mxGeometry width="50" height="50" relative="1" as="geometry">
            <mxPoint x="410" y="570" as="sourcePoint" />
            <mxPoint x="330" y="570" as="targetPoint" />
          </mxGeometry>
        </mxCell>
        <mxCell id="p08QZk6RSZ-r1u3Rrn62-68" value="" style="endArrow=classic;html=1;rounded=0;exitX=0;exitY=0.5;exitDx=0;exitDy=0;" parent="1" source="p08QZk6RSZ-r1u3Rrn62-43" edge="1">
          <mxGeometry width="50" height="50" relative="1" as="geometry">
            <mxPoint x="700" y="540" as="sourcePoint" />
            <mxPoint x="610" y="560" as="targetPoint" />
          </mxGeometry>
        </mxCell>
        <mxCell id="p08QZk6RSZ-r1u3Rrn62-69" value="FeedbackType_tb" style="shape=swimlane;fontSize=15;" parent="1" vertex="1">
          <mxGeometry x="1275" y="480" width="225" height="160" as="geometry" />
        </mxCell>
        <mxCell id="p08QZk6RSZ-r1u3Rrn62-70" value="&lt;font style=&quot;font-size: 15px;&quot;&gt;&lt;br style=&quot;padding: 0px; margin: 0px;&quot;&gt;- feedback_type_id (PK)&lt;/font&gt;&lt;div&gt;&lt;font style=&quot;font-size: 15px;&quot;&gt;-name&lt;br style=&quot;padding: 0px; margin: 0px;&quot;&gt;- subject_id (FK)&lt;/font&gt;&lt;/div&gt;" style="text;html=1;align=center;verticalAlign=middle;resizable=0;points=[];autosize=1;strokeColor=none;fillColor=none;" parent="p08QZk6RSZ-r1u3Rrn62-69" vertex="1">
          <mxGeometry x="22.5" y="50" width="180" height="90" as="geometry" />
        </mxCell>
        <mxCell id="p08QZk6RSZ-r1u3Rrn62-72" value="" style="endArrow=classic;html=1;rounded=0;" parent="1" edge="1">
          <mxGeometry width="50" height="50" relative="1" as="geometry">
            <mxPoint x="1000" y="570" as="sourcePoint" />
            <mxPoint x="920" y="570" as="targetPoint" />
          </mxGeometry>
        </mxCell>
        <mxCell id="p08QZk6RSZ-r1u3Rrn62-84" value="Admin_tb" style="shape=swimlane;fontSize=15;" parent="1" vertex="1">
          <mxGeometry x="510" y="-210" width="160" height="150" as="geometry" />
        </mxCell>
        <mxCell id="p08QZk6RSZ-r1u3Rrn62-85" value="&lt;font style=&quot;font-size: 15px;&quot;&gt;-admin_id(PK)&lt;br style=&quot;padding: 0px; margin: 0px;&quot;&gt;- name&lt;/font&gt;&lt;div&gt;&lt;font style=&quot;font-size: 15px;&quot;&gt;-email&lt;br&gt;&lt;/font&gt;&lt;div&gt;&lt;font style=&quot;font-size: 15px;&quot;&gt;-password&lt;/font&gt;&lt;/div&gt;&lt;/div&gt;" style="text;html=1;align=center;verticalAlign=middle;resizable=0;points=[];autosize=1;strokeColor=none;fillColor=none;" parent="p08QZk6RSZ-r1u3Rrn62-84" vertex="1">
          <mxGeometry x="20" y="35" width="120" height="90" as="geometry" />
        </mxCell>
        <mxCell id="p08QZk6RSZ-r1u3Rrn62-87" value="" style="endArrow=classic;html=1;rounded=0;entryX=0.5;entryY=0;entryDx=0;entryDy=0;exitX=0.333;exitY=1;exitDx=0;exitDy=0;exitPerimeter=0;" parent="1" source="p08QZk6RSZ-r1u3Rrn62-53" target="p08QZk6RSZ-r1u3Rrn62-37" edge="1">
          <mxGeometry width="50" height="50" relative="1" as="geometry">
            <mxPoint x="170" y="100" as="sourcePoint" />
            <mxPoint x="220" y="50" as="targetPoint" />
          </mxGeometry>
        </mxCell>
        <mxCell id="p08QZk6RSZ-r1u3Rrn62-88" value="" style="endArrow=classic;html=1;rounded=0;exitX=0.806;exitY=0.938;exitDx=0;exitDy=0;exitPerimeter=0;" parent="1" source="p08QZk6RSZ-r1u3Rrn62-53" edge="1">
          <mxGeometry width="50" height="50" relative="1" as="geometry">
            <mxPoint x="400" y="20" as="sourcePoint" />
            <mxPoint x="510" as="targetPoint" />
          </mxGeometry>
        </mxCell>
        <mxCell id="p08QZk6RSZ-r1u3Rrn62-90" value="" style="endArrow=classic;html=1;rounded=0;" parent="1" edge="1">
          <mxGeometry width="50" height="50" relative="1" as="geometry">
            <mxPoint x="594.38" y="-60" as="sourcePoint" />
            <mxPoint x="594.38" y="-20" as="targetPoint" />
            <Array as="points">
              <mxPoint x="594.38" y="-50" />
            </Array>
          </mxGeometry>
        </mxCell>
        <mxCell id="p08QZk6RSZ-r1u3Rrn62-92" value="" style="endArrow=classic;html=1;rounded=0;entryX=0.681;entryY=-0.013;entryDx=0;entryDy=0;entryPerimeter=0;exitX=0;exitY=0.5;exitDx=0;exitDy=0;" parent="1" source="p08QZk6RSZ-r1u3Rrn62-39" target="p08QZk6RSZ-r1u3Rrn62-37" edge="1">
          <mxGeometry width="50" height="50" relative="1" as="geometry">
            <mxPoint x="290" y="80" as="sourcePoint" />
            <mxPoint x="340" y="30" as="targetPoint" />
          </mxGeometry>
        </mxCell>
        <mxCell id="jho8JQ8NPNrszEOWHJcu-4" value="FeedbackModuleType_tb" style="shape=swimlane;fontSize=15;" parent="1" vertex="1">
          <mxGeometry x="1000" y="480" width="205" height="160" as="geometry" />
        </mxCell>
        <mxCell id="jho8JQ8NPNrszEOWHJcu-5" value="&lt;font style=&quot;font-size: 15px;&quot;&gt;&lt;br style=&quot;padding: 0px; margin: 0px;&quot;&gt;- feedbackmodule_type_id&amp;nbsp;(PK)&lt;/font&gt;&lt;div&gt;&lt;font style=&quot;font-size: 15px;&quot;&gt;-name&lt;br style=&quot;padding: 0px; margin: 0px;&quot;&gt;- feedbacktype_id (FK)&lt;/font&gt;&lt;/div&gt;" style="text;html=1;align=center;verticalAlign=middle;resizable=0;points=[];autosize=1;strokeColor=none;fillColor=none;" parent="jho8JQ8NPNrszEOWHJcu-4" vertex="1">
          <mxGeometry x="-20" y="50" width="230" height="90" as="geometry" />
        </mxCell>
        <mxCell id="jho8JQ8NPNrszEOWHJcu-7" value="" style="endArrow=classic;html=1;rounded=0;" parent="1" edge="1">
          <mxGeometry width="50" height="50" relative="1" as="geometry">
            <mxPoint x="1275" y="579.29" as="sourcePoint" />
            <mxPoint x="1200" y="579.29" as="targetPoint" />
          </mxGeometry>
        </mxCell>
        <mxCell id="jho8JQ8NPNrszEOWHJcu-10" value="" style="endArrow=classic;html=1;rounded=0;entryX=0.5;entryY=0;entryDx=0;entryDy=0;exitX=1;exitY=1;exitDx=0;exitDy=0;" parent="1" source="p08QZk6RSZ-r1u3Rrn62-41" target="p08QZk6RSZ-r1u3Rrn62-69" edge="1">
          <mxGeometry width="50" height="50" relative="1" as="geometry">
            <mxPoint x="1560" y="90" as="sourcePoint" />
            <mxPoint x="1310" y="270" as="targetPoint" />
          </mxGeometry>
        </mxCell>
      </root>
    </mxGraphModel>
  </diagram>
</mxfile>
